<svg width="41" height="51" viewBox="0 0 41 51" fill="none" xmlns="http://www.w3.org/2000/svg">
<path d="M34.4316 23.0105L28.1909 29.3478L22.7078 23.7799L28.9485 17.4426L28.9475 17.4416L33.3121 13.0074L20.503 0L7.69088 13.0074L18.2992 23.7799L12.8141 29.3478L6.57243 23.0105L0 29.6796L20.5 50.4969L41 29.6806L34.4316 23.0105ZM20.503 21.5409L16.4631 17.4385L20.5 13.3392L24.5389 17.4406L20.503 21.5409ZM20.503 4.47591L28.9044 13.0074L26.7437 15.2026L20.501 8.86327L14.2603 15.2006L12.1006 13.0074L20.503 4.47591ZM4.40968 29.6806L6.57142 27.4864L12.8121 33.8237L20.502 26.0179L28.1889 33.8237L34.4296 27.4864L36.5893 29.6796L20.5 46.02L4.40968 29.6806Z" fill="#FF5555"/>
</svg>
