<svg width="220" height="29" viewBox="0 0 220 29" fill="none" xmlns="http://www.w3.org/2000/svg">
<path d="M18.6512 14.722H15.6806V4.06581L9.31084 9.30512L2.88441 4.06581V14.722H0V0.00195312H2.97058L9.31084 5.44925L15.7373 0.00195312H18.6512V14.722Z" fill="#1A1A1A"/>
<path d="M47.6994 11.2473C47.6994 12.6214 47.4477 13.5445 46.942 14.0142C46.4363 14.4862 45.5089 14.7199 44.1574 14.7199H33.7036C32.3521 14.7199 31.4247 14.4862 30.919 14.0142C30.4133 13.5421 30.1616 12.6214 30.1616 11.2473V3.53555C30.1616 2.16379 30.4133 1.24072 30.919 0.768669C31.4247 0.296617 32.3521 0.0629272 33.7036 0.0629272H44.1574C45.5089 0.0629272 46.4363 0.296617 46.942 0.768669C47.4477 1.24072 47.6994 2.16379 47.6994 3.53555V11.2473ZM44.3864 11.925V2.71296H33.4746V11.925H44.3864Z" fill="#1A1A1A"/>
<path d="M74.5503 11.8361C74.5503 13.7594 73.1512 14.7198 70.353 14.7198H59.5546V0.0020752H71.2373C73.3712 0.0020752 74.4369 0.953191 74.4369 2.85776V4.65249C74.4369 6.10604 73.6183 6.92863 71.9811 7.12493C73.6932 7.35861 74.5503 8.30038 74.5503 9.95023V11.8361ZM71.3802 4.80205V3.18259C71.3802 2.67081 70.8677 2.41609 69.8382 2.41609H62.668V5.86067H69.8382C70.8654 5.86067 71.3802 5.5078 71.3802 4.80205ZM71.4664 11.0416V9.71654C71.4664 9.14868 71.3371 8.78646 71.0809 8.62755C70.8246 8.47098 70.4097 8.39386 69.8382 8.39386H62.668V12.0745H69.8382C70.4074 12.0745 70.8224 11.9903 71.0809 11.8244C71.3371 11.6562 71.4664 11.3944 71.4664 11.0416Z" fill="#1A1A1A"/>
<path d="M89.5165 14.7222H86.2307V0.0020752H89.5165V14.7222Z" fill="#1A1A1A"/>
<path d="M113.252 0.0629272H116.708L108.567 14.7223H105.367L97.3126 0.0629272H100.911L106.966 11.5721L113.252 0.0629272Z" fill="#1A1A1A"/>
<path d="M139.504 14.7225H124.651V2.47713C124.651 0.827286 125.47 0.00469971 127.107 0.00469971H139.361V2.50518H127.993V5.80253H134.363V8.30301H127.993V11.9532H139.504V14.7225Z" fill="#1A1A1A"/>
<path d="M165.981 14.7223H161.81L156.525 9.1885H153.468V14.7223H150.212V0.0629272H162.409C164.543 0.0629272 165.609 0.915893 165.609 2.62416V6.62726C165.609 7.86348 165.055 8.71644 163.951 9.1885H160.522L165.981 14.7223ZM162.411 5.50789V3.74353C162.411 2.97937 162.096 2.59612 161.47 2.59612H153.472V6.68802H161.47C162.096 6.68568 162.411 6.29308 162.411 5.50789Z" fill="#1A1A1A"/>
<path d="M193.144 11.2475C193.144 12.6216 192.879 13.5446 192.346 14.0143C191.813 14.4841 190.852 14.7201 189.459 14.7201H180.604C179.101 14.7201 178.11 14.456 177.634 13.9255C177.158 13.3951 176.92 12.2687 176.92 10.5417H180.233V11.9252H190.117V8.59977H180.89C179.5 8.59977 178.543 8.35907 178.019 7.87767C177.496 7.39627 177.235 6.47086 177.235 5.09443V3.47496C177.235 2.1032 177.496 1.18013 178.019 0.708079C178.543 0.236026 179.5 0 180.89 0H192.802V2.59161H180.233V5.74175H189.457C190.847 5.74175 191.811 5.97544 192.344 6.44749C192.877 6.91954 193.142 7.84261 193.142 9.21437V11.2475H193.144Z" fill="#1A1A1A"/>
<path d="M219.081 14.7225H204.229V2.47713C204.229 0.827286 205.047 0.00469971 206.684 0.00469971H218.939V2.50518H207.571V5.80253H213.941V8.30301H207.571V11.9532H219.081V14.7225Z" fill="#1A1A1A"/>
<path d="M3.52841 27.9808C3.11571 28.3851 2.62137 28.5884 2.04539 28.5884C1.60774 28.5884 1.21771 28.5043 0.868498 28.3407C0.684821 28.2566 0.532892 28.1818 0.405905 28.1093C0.278919 28.0392 0.174606 27.9738 0.0952395 27.913V27.2166C0.276649 27.3592 0.451258 27.4807 0.619062 27.5812C0.786866 27.6817 0.94333 27.7658 1.08846 27.8336C1.37871 27.9668 1.6667 28.0369 1.95015 28.0369C2.39914 28.0369 2.77783 27.8897 3.08396 27.5976C3.39009 27.3054 3.54202 26.9432 3.54202 26.5086C3.54202 26.0505 3.39689 25.7 3.10664 25.4523C2.80051 25.1976 2.35152 24.9662 1.75514 24.7559C1.14515 24.5386 0.700696 24.2838 0.424047 23.9917C0.140595 23.6996 0 23.2766 0 22.7228C0 22.183 0.206354 21.7156 0.621328 21.3183C1.04991 20.921 1.54652 20.7224 2.11342 20.7224C2.5284 20.7224 2.90255 20.7855 3.23589 20.914C3.40369 20.9818 3.53748 21.0379 3.63953 21.087C3.74157 21.1337 3.81187 21.1758 3.84815 21.2061L3.85949 21.8581C3.78012 21.8044 3.68034 21.7506 3.56016 21.6899C3.43998 21.6315 3.30845 21.5614 3.16106 21.4889C2.87761 21.3464 2.55107 21.2739 2.17918 21.2739C1.737 21.2739 1.36964 21.4118 1.07939 21.6899C0.77326 21.975 0.621328 22.3115 0.621328 22.7018C0.621328 23.1201 0.741513 23.4355 0.979612 23.6459C1.22678 23.8632 1.63268 24.0805 2.19959 24.2979C2.9547 24.583 3.46719 24.8797 3.73704 25.1859C4.01369 25.5084 4.14974 25.9617 4.14974 26.5459C4.14974 27.0951 3.94339 27.5742 3.52841 27.9808Z" fill="#1A1A1A"/>
<path d="M22.2022 27.4527C21.4471 28.2098 20.5128 28.5884 19.4017 28.5884C18.2815 28.5884 17.3472 28.2122 16.5989 27.4644C15.8438 26.7072 15.4651 25.7701 15.4651 24.6554C15.4651 23.5407 15.8392 22.6083 16.5876 21.8581C17.3427 21.101 18.2815 20.7224 19.3994 20.7224C20.5037 20.7224 21.438 21.0987 22.1999 21.8465C22.955 22.6036 23.3337 23.5384 23.3337 24.6554C23.336 25.7631 22.9573 26.6955 22.2022 27.4527ZM21.7464 22.2601C21.1069 21.6011 20.3269 21.2716 19.4017 21.2716C18.4787 21.2716 17.6964 21.6011 17.057 22.2601C16.4084 22.9284 16.0864 23.7253 16.0864 24.6531C16.0864 25.5902 16.4061 26.3894 17.0456 27.046C17.6851 27.705 18.4697 28.0369 19.4017 28.0369C20.3246 28.0369 21.1046 27.7074 21.7464 27.046C22.3927 26.38 22.7169 25.5832 22.7169 24.6531C22.7147 23.7253 22.3904 22.9284 21.7464 22.2601Z" fill="#1A1A1A"/>
<path d="M35.089 28.4857V20.823H35.6672V27.9926H39.3408V28.4857H35.089Z" fill="#1A1A1A"/>
<path d="M54.899 27.6185C54.3185 28.2635 53.5702 28.586 52.6541 28.586C51.738 28.586 50.9897 28.2752 50.4092 27.6513C49.8287 27.0156 49.5361 26.2024 49.5361 25.2139V20.8205H50.1144V25.1695C50.1144 26.0458 50.3434 26.7422 50.8015 27.2587C51.2663 27.7751 51.8876 28.0345 52.6654 28.0345C53.4364 28.0345 54.0464 27.7681 54.4977 27.2353C54.9557 26.7118 55.1848 26.0037 55.1848 25.111V20.8182H55.763V25.1554C55.7585 26.1486 55.4728 26.9689 54.899 27.6185Z" fill="#1A1A1A"/>
<path d="M70.5411 21.3184V28.4857H69.9628V21.3184H67.1714V20.823H73.3325V21.3184H70.5411Z" fill="#1A1A1A"/>
<path d="M84.911 28.4857V20.823H85.4779V28.4857H84.911Z" fill="#1A1A1A"/>
<path d="M103.966 27.4527C103.211 28.2098 102.276 28.5884 101.165 28.5884C100.045 28.5884 99.1108 28.2122 98.3624 27.4644C97.6073 26.7072 97.2286 25.7701 97.2286 24.6554C97.2286 23.5407 97.6028 22.6083 98.3511 21.8581C99.1062 21.101 100.045 20.7224 101.163 20.7224C102.267 20.7224 103.202 21.0987 103.963 21.8465C104.719 22.6036 105.097 23.5384 105.097 24.6554C105.1 25.7631 104.723 26.6955 103.966 27.4527ZM103.51 22.2601C102.87 21.6011 102.09 21.2716 101.165 21.2716C100.24 21.2716 99.46 21.6011 98.8205 22.2601C98.172 22.9284 97.85 23.7253 97.85 24.6531C97.85 25.5902 98.1697 26.3894 98.8092 27.046C99.4486 27.705 100.233 28.0369 101.165 28.0369C102.088 28.0369 102.868 27.7074 103.51 27.046C104.156 26.38 104.48 25.5832 104.48 24.6531C104.48 23.7253 104.156 22.9284 103.51 22.2601Z" fill="#1A1A1A"/>
<path d="M123.077 28.4857L117.429 21.7905V28.4857H116.85V20.823H117.342C117.814 21.4072 118.283 21.9774 118.748 22.5313C119.213 23.0851 119.685 23.6366 120.166 24.1834C120.644 24.7303 121.116 25.2795 121.583 25.8333C122.048 26.3895 122.515 26.9573 122.989 27.5416V20.823H123.567V28.4857H123.077Z" fill="#1A1A1A"/>
<path d="M138.756 27.9808C138.343 28.3851 137.849 28.5884 137.273 28.5884C136.835 28.5884 136.445 28.5043 136.096 28.3407C135.912 28.2566 135.76 28.1818 135.633 28.1093C135.506 28.0392 135.402 27.9738 135.322 27.913V27.2166C135.504 27.3592 135.678 27.4807 135.846 27.5812C136.014 27.6817 136.17 27.7658 136.316 27.8336C136.606 27.9668 136.894 28.0369 137.177 28.0369C137.626 28.0369 138.005 27.8897 138.311 27.5976C138.617 27.3054 138.769 26.9432 138.769 26.5086C138.769 26.0505 138.624 25.7 138.334 25.4523C138.028 25.1976 137.579 24.9662 136.982 24.7559C136.372 24.5386 135.928 24.2838 135.651 23.9917C135.368 23.6996 135.227 23.2766 135.227 22.7228C135.227 22.183 135.434 21.7156 135.848 21.3183C136.277 20.921 136.774 20.7224 137.341 20.7224C137.756 20.7224 138.13 20.7855 138.463 20.914C138.631 20.9818 138.765 21.0379 138.867 21.087C138.969 21.1337 139.039 21.1758 139.075 21.2061L139.087 21.8581C139.007 21.8044 138.908 21.7506 138.787 21.6899C138.667 21.6315 138.536 21.5614 138.388 21.4889C138.105 21.3464 137.778 21.2739 137.406 21.2739C136.964 21.2739 136.597 21.4118 136.307 21.6899C136 21.975 135.848 22.3115 135.848 22.7018C135.848 23.1201 135.969 23.4355 136.207 23.6459C136.454 23.8632 136.86 24.0805 137.427 24.2979C138.182 24.583 138.694 24.8797 138.964 25.1859C139.241 25.5084 139.377 25.9617 139.377 26.5459C139.377 27.0951 139.171 27.5742 138.756 27.9808Z" fill="#1A1A1A"/>
</svg>
