<svg width="62" height="50" viewBox="0 0 62 50" fill="none" xmlns="http://www.w3.org/2000/svg">
<path d="M41.4373 22.3699C41.6119 22.4647 41.7816 22.5545 41.9562 22.6443C41.8664 22.5994 41.7766 22.5495 41.6818 22.4997C41.602 22.4548 41.5221 22.4148 41.4373 22.3699ZM35.1314 16.2686C35.1072 16.2025 35.0905 16.1339 35.0815 16.0641C35.0965 16.1688 35.1314 16.2686 35.1763 16.3534C35.1614 16.3235 35.1464 16.3035 35.1314 16.2686ZM47.3042 23.4226C47.3491 23.4126 47.394 23.3976 47.4389 23.3877C47.6983 23.3278 47.9578 23.253 48.2172 23.1682C48.6412 23.0235 49.0603 22.8489 49.4843 22.6244C49.8236 22.4448 50.1429 22.2502 50.4322 22.0407C50.7216 21.8312 50.991 21.6067 51.2354 21.3722C50.7465 21.8411 50.1628 22.2652 49.4843 22.6244C48.756 23.0035 48.0276 23.2679 47.3042 23.4226ZM44.0665 23.3927C44.2461 23.4326 44.4207 23.4675 44.6003 23.4924C44.4506 23.4675 44.3009 23.4376 44.1513 23.4076C44.1263 23.4026 44.0964 23.4026 44.0665 23.3927ZM40.9335 9.34908C40.7838 9.44886 40.6491 9.55861 40.5094 9.66338C40.7788 9.46882 41.0532 9.28423 41.3425 9.10962C41.2078 9.18944 41.0632 9.25928 40.9335 9.34908Z" fill="white"/>
<path d="M41.4374 22.3697C41.5173 22.4146 41.6021 22.4545 41.6869 22.4994C41.4325 22.3647 41.178 22.2251 40.9236 22.0654C40.5694 21.8459 40.2401 21.6064 39.9109 21.362C40.2351 21.6064 40.5694 21.8459 40.9236 22.0654C41.0932 22.1752 41.2678 22.2749 41.4374 22.3697ZM35.8499 17.2163C35.6404 16.9568 35.4259 16.6924 35.2163 16.428C35.8449 17.2163 36.4785 18.0045 37.147 18.7578C36.9225 18.5084 36.708 18.2539 36.4885 17.9945C36.274 17.7351 36.0595 17.4757 35.8499 17.2163ZM39.9109 21.362C39.7013 21.2023 39.4868 21.0427 39.2872 20.8731C39.0578 20.6785 38.8383 20.479 38.6187 20.2744C39.0278 20.6586 39.4619 21.0227 39.9109 21.362ZM50.5471 9.52846C50.0532 9.09942 49.5044 8.74023 48.9257 8.46085C48.7162 8.36107 48.5016 8.28125 48.2821 8.20642C49.1053 8.50575 49.8736 8.94477 50.5471 9.52846ZM36.5883 13.7041C37.0872 13.0456 37.606 12.402 38.1548 11.7934C37.606 12.397 37.0872 13.0406 36.5883 13.7041ZM37.8305 19.4962C37.601 19.2567 37.3715 19.0073 37.152 18.7578C37.3715 19.0073 37.596 19.2567 37.8305 19.4962ZM35.3311 15.4303C35.5057 15.1858 35.6753 14.9463 35.8499 14.7069C35.6055 15.0411 35.366 15.3804 35.1266 15.7196C35.1016 15.7545 35.0866 15.8094 35.0767 15.8693C35.0816 15.8094 35.0966 15.7545 35.1266 15.7196C35.1964 15.6198 35.2612 15.525 35.3311 15.4303Z" fill="white"/>
<path d="M35.2163 16.4281C35.4259 16.6925 35.6354 16.9519 35.8499 17.2163C35.6354 16.9569 35.4259 16.6925 35.2163 16.4281C35.1814 16.3882 35.1565 16.3283 35.1315 16.2684C35.1415 16.3034 35.1614 16.3233 35.1764 16.3532C35.1914 16.3782 35.2014 16.4081 35.2163 16.4281ZM36.4885 17.9946C36.703 18.254 36.9225 18.5084 37.147 18.7579C37.3715 19.0073 37.596 19.2567 37.8255 19.4962C37.3665 19.0123 36.9225 18.5084 36.4885 17.9946ZM35.1265 15.7147C35.1016 15.7496 35.0866 15.8045 35.0766 15.8643C35.0716 15.9242 35.0716 15.994 35.0816 16.0639C35.0617 15.9242 35.0717 15.7895 35.1265 15.7147ZM50.9013 9.88272C50.7815 9.76798 50.6718 9.63827 50.5471 9.5335C50.7965 9.74802 51.031 9.9825 51.2505 10.2319C51.1407 10.1022 51.016 9.99746 50.9013 9.88272ZM43.9318 23.3576C43.9767 23.3675 44.0216 23.3825 44.0665 23.3925L44.1514 23.4075C44.0815 23.3925 44.0067 23.3775 43.9318 23.3576ZM41.6869 22.4995C41.8532 22.5939 42.0248 22.6788 42.2007 22.7539C42.0261 22.6741 41.8565 22.5893 41.6869 22.4995ZM36.5883 13.7042C38.0849 11.7236 39.7412 9.8927 42.0311 8.70536C43.3881 8.00193 44.7799 7.7026 46.107 7.76247C45.4435 7.73253 44.765 7.7924 44.0815 7.94705C43.7423 8.02687 43.398 8.12665 43.0538 8.25137C42.7096 8.37609 42.3703 8.52576 42.0311 8.70536C41.7916 8.83008 41.5671 8.97475 41.3426 9.10945C40.5044 9.62354 39.7233 10.2256 39.0128 10.9054C38.7185 11.1898 38.4341 11.4841 38.1548 11.7885C37.606 12.3971 37.0871 13.0407 36.5883 13.7042ZM35.3311 15.4303C35.7451 14.8516 36.1592 14.2729 36.5883 13.7042C36.3388 14.0334 36.0944 14.3677 35.8499 14.7069C35.6753 14.9464 35.5057 15.1859 35.3311 15.4303ZM52.0786 20.3792C51.8342 20.7235 51.5648 21.0577 51.2405 21.372C51.5598 21.0627 51.8292 20.7235 52.0786 20.3792ZM38.6187 20.2745C38.8382 20.479 39.0577 20.6786 39.2872 20.8731C38.7734 20.4391 38.2895 19.9801 37.8305 19.4962C38.06 19.7357 38.2944 19.9701 38.5389 20.1996C38.5638 20.2246 38.5938 20.2495 38.6187 20.2745ZM48.2173 23.168C48.6413 23.0233 49.0604 22.8487 49.4844 22.6242C49.0604 22.8437 48.6413 23.0233 48.2173 23.168Z" fill="white"/>
<path d="M42.1959 22.754C42.1161 22.7191 42.0363 22.6841 41.9564 22.6442C42.4803 22.8987 43.0041 23.1082 43.5329 23.2629C43.3583 23.213 43.1787 23.1531 43.0041 23.0932C42.7347 22.9885 42.4653 22.8737 42.1959 22.754ZM52.0788 20.3793C52.2684 20.1149 52.433 19.8455 52.5777 19.5661C52.5278 19.6559 52.4929 19.7507 52.443 19.8405C52.3333 20.0301 52.2035 20.2047 52.0788 20.3793ZM43.5379 23.2579C43.7125 23.3077 43.8921 23.3526 44.0717 23.3926C44.0268 23.3826 43.9819 23.3676 43.937 23.3576C43.8023 23.3277 43.6676 23.2978 43.5379 23.2579ZM46.2219 23.5672C46.626 23.5422 47.0351 23.4774 47.4442 23.3876C47.3993 23.3975 47.3544 23.4125 47.3095 23.4225C46.9403 23.4973 46.5811 23.5472 46.2219 23.5672ZM41.5823 8.96484C41.3678 9.08956 41.1433 9.2093 40.9387 9.344C41.0684 9.25919 41.2131 9.18435 41.3428 9.10453C41.4226 9.05963 41.5025 9.01473 41.5823 8.96484Z" fill="white"/>
<path d="M42.1955 22.754C42.4649 22.8787 42.7343 22.9934 43.0037 23.0882C42.7343 22.9884 42.4649 22.8737 42.1955 22.754ZM43.0086 23.0882C43.1833 23.1531 43.3629 23.208 43.5375 23.2578C43.6672 23.2978 43.8019 23.3277 43.9316 23.3576C43.6223 23.2878 43.313 23.198 43.0086 23.0882ZM51.2502 10.227C51.0307 9.97756 50.7912 9.74308 50.5468 9.52856C50.6715 9.63832 50.7813 9.76304 50.901 9.87778C51.0157 9.99751 51.1405 10.1023 51.2502 10.227ZM52.5773 19.5711C52.8167 19.1121 53.0163 18.6382 53.146 18.1593C53.0662 18.4486 52.9714 18.733 52.8516 19.0173C52.7718 19.2019 52.672 19.3865 52.5773 19.5711ZM53.4004 16.4231C53.4004 15.9941 53.3805 15.58 53.3405 15.1759C53.3855 15.58 53.4054 15.9991 53.4004 16.4231ZM43.0535 8.25142C43.3978 8.1267 43.737 8.02194 44.0812 7.9471C44.7647 7.79245 45.4432 7.73258 46.1067 7.76252C46.436 7.77748 46.7652 7.8124 47.0845 7.87227C47.4986 7.9471 47.8927 8.06683 48.2819 8.21151C48.4964 8.29133 48.7159 8.36616 48.9254 8.46594C46.89 7.48813 44.4105 7.47316 42.0308 8.70541C42.3701 8.52581 42.7093 8.37614 43.0535 8.25142ZM37.1467 18.7579C36.4782 18.0046 35.8447 17.2214 35.2161 16.4281C35.8447 17.2164 36.4782 18.0046 37.1467 18.7579Z" fill="white"/>
<path d="M52.4377 19.8456C52.4876 19.7558 52.5275 19.661 52.5724 19.5712C52.6672 19.3867 52.767 19.2021 52.8468 19.0175C52.7321 19.2969 52.5974 19.5712 52.4377 19.8456ZM51.2504 10.2271C51.4699 10.4766 51.6794 10.746 51.874 11.0303C51.6844 10.746 51.4749 10.4816 51.2504 10.2271ZM53.3257 17.2913C53.2808 17.5807 53.221 17.87 53.1461 18.1594C53.3058 17.5807 53.3856 17.002 53.4056 16.4283C53.3956 16.7126 53.3706 17.002 53.3257 17.2913ZM42.031 8.70056C41.8763 8.78038 41.7317 8.88016 41.582 8.96497C41.5022 9.00987 41.4224 9.05976 41.3425 9.10466C41.567 8.96996 41.7915 8.82528 42.031 8.70056Z" fill="white"/>
<path d="M52.4377 19.8455C52.5974 19.5761 52.7321 19.2968 52.8468 19.0124C52.9615 18.728 53.0613 18.4437 53.1411 18.1543C53.221 17.865 53.2808 17.5756 53.3207 17.2863C53.196 18.1593 52.9117 19.0323 52.4377 19.8455ZM51.2504 10.2271C51.6944 10.7259 52.0835 11.2997 52.4028 11.9332C52.2431 11.6189 52.0635 11.3146 51.874 11.0303C51.6844 10.7459 51.4749 10.4815 51.2504 10.2271Z" fill="white"/>
<path d="M59.7315 8.75584C55.7853 0.454414 44.5105 -3.19243 36.2889 3.43774C35.2562 4.27087 34.3033 5.16887 33.3953 6.10178C31.5145 8.03745 29.8283 10.1477 28.1371 12.258C27.304 13.2957 26.4758 14.3334 25.6427 15.366C24.161 17.2119 22.6593 19.0478 21.0829 20.8139C19.1971 22.9341 16.7426 24.0117 13.8291 23.3632C10.2621 22.5649 7.98216 19.3571 7.94225 15.7153C7.95222 15.6554 7.95721 15.5955 7.95721 15.5257V15.3112C7.9622 15.1964 7.9622 15.0817 7.96719 14.9669C7.96719 14.957 7.9622 14.942 7.95222 14.932C7.92229 12.6721 7.93726 10.4171 7.93726 8.15718C7.93726 5.66276 7.92229 3.16834 7.95222 0.668934C7.95721 0.190006 7.70278 -0.00954744 6.74492 0.00541907C4.90404 0.0403409 3.05816 0.0403409 1.21728 0.00541907C0.269398 -0.0045586 0 0.180028 0 0.668934C0.0249442 5.65777 0.0299331 10.6516 0.00498885 15.6404C0.00498885 15.6504 0.00498885 15.6554 0.00997769 15.6654C0 16.6881 0.0798216 17.7308 0.269398 18.7834C2.46449 31.0859 15.5353 33.73 22.7142 29.3448C23.7868 28.6912 24.7746 27.893 25.7325 27.0549C25.7824 34.0792 25.8323 41.0985 25.8722 48.1227C25.8821 49.6294 26.2463 50.0285 27.0695 49.9986C28.8505 49.9337 30.6315 49.8888 32.4125 49.9786C33.4353 50.0285 33.7296 49.3749 33.7096 47.7286C33.6198 40.3701 33.5849 33.0066 33.53 25.648C34.3482 26.5011 35.1863 27.3293 36.0943 28.0726C41.3027 32.3331 49.8935 32.3431 55.2415 28.2522C61.1732 23.7124 63.0341 15.7103 59.7315 8.75584ZM53.1462 18.1598C53.0165 18.6387 52.8169 19.1127 52.5775 19.5716C52.4328 19.851 52.2682 20.1204 52.0786 20.3848C51.8341 20.729 51.5647 21.0633 51.2405 21.3776C50.996 21.6121 50.7266 21.8366 50.4372 22.0461C50.1479 22.2556 49.8286 22.4502 49.4894 22.6298C49.0653 22.8543 48.6413 23.0289 48.2222 23.1736C47.9628 23.2634 47.7034 23.3332 47.4439 23.3931C47.0349 23.4879 46.6308 23.5477 46.2217 23.5727C45.8625 23.5926 45.5033 23.5926 45.1441 23.5627C44.9645 23.5477 44.7849 23.5278 44.6053 23.4979C44.4257 23.4729 44.2461 23.438 44.0715 23.3981C43.8919 23.3582 43.7173 23.3133 43.5377 23.2634C43.0089 23.1087 42.48 22.9042 41.9612 22.6448C41.612 22.4751 41.2677 22.2806 40.9235 22.071C39.7611 21.3477 38.7584 20.4646 37.8304 19.5018C37.6009 19.2623 37.3715 19.0129 37.1519 18.7634C36.4834 18.0101 35.8499 17.2269 35.2213 16.4337C35.1215 16.3089 35.0616 16.0545 35.0816 15.8699C35.0866 15.8101 35.1015 15.7552 35.1315 15.7203C35.6154 15.0468 36.0943 14.3683 36.5932 13.7098C37.3415 12.717 38.1298 11.7641 39.0178 10.911C39.4817 10.462 39.9856 10.0529 40.5144 9.66879C40.6591 9.56403 40.7938 9.45428 40.9385 9.3545C41.143 9.2198 41.3675 9.10007 41.582 8.97535C41.7317 8.89054 41.8764 8.79076 42.031 8.71094C44.4057 7.4787 46.8902 7.49366 48.9256 8.47147C49.5093 8.75085 50.0531 9.11005 50.547 9.53909C50.7964 9.75361 51.0309 9.98808 51.2504 10.2375C51.6944 10.7364 52.0836 11.3101 52.4029 11.9437C52.5625 12.258 52.7072 12.5923 52.8319 12.9365C53.0813 13.6299 53.2559 14.3832 53.3408 15.1864C53.3857 15.5905 53.4056 16.0046 53.4006 16.4337C53.3857 16.9974 53.3008 17.5811 53.1462 18.1598Z" fill="white"/>
<path d="M28.132 7.6429C29.8282 5.53262 31.5094 3.42234 33.3902 1.48667C33.3902 0.992779 33.3902 0.493895 33.3852 0H25.5527L25.6425 10.7509C26.4707 9.71327 27.3038 8.67559 28.132 7.6429Z" fill="white"/>
</svg>
