<svg width="399" height="166" viewBox="0 0 399 166" fill="none" xmlns="http://www.w3.org/2000/svg">
<rect width="399" height="166" fill="white"/>
<path d="M107.637 143.703V128.938C107.637 125.422 109.395 123.664 112.91 123.664H116.953C118.57 123.664 119.742 124.098 120.469 124.965C121.242 124.098 122.414 123.664 123.984 123.664H128.027C131.543 123.664 133.301 125.422 133.301 128.938V142.121L129.961 143.703H129.785V128.938C129.785 127.531 129.199 126.828 128.027 126.828H123.984C122.812 126.828 122.227 127.531 122.227 128.938V142.121L118.887 143.703H118.711V128.938C118.711 127.531 118.125 126.828 116.953 126.828H112.91C111.738 126.828 111.152 127.531 111.152 128.938V142.121L107.812 143.703H107.637ZM154.648 143C151.132 143 149.374 141.242 149.374 137.727V128.938C149.374 125.422 151.132 123.664 154.648 123.664H158.691C162.206 123.664 163.964 125.422 163.964 128.938V129.869L152.943 138.395C153.107 139.355 153.675 139.836 154.648 139.836H158.691C159.862 139.836 160.448 139.133 160.448 137.727V136.795L163.788 135.213H163.964V137.727C163.964 141.242 162.206 143 158.691 143H154.648ZM152.89 134.721L160.431 128.639C160.361 127.432 159.78 126.828 158.691 126.828H154.648C153.476 126.828 152.89 127.531 152.89 128.938V134.721ZM184.784 143C181.268 143 179.51 141.242 179.51 137.727V137.094L182.85 135.512H183.026V137.727C183.026 139.133 183.612 139.836 184.784 139.836H188.827C189.998 139.836 190.584 139.133 190.584 137.727V136.338C190.584 134.932 189.998 134.229 188.827 134.229H185.522C182.006 134.229 180.248 132.465 180.248 128.938C180.248 125.422 182.006 123.664 185.522 123.664H187.579C191.094 123.664 192.852 125.082 192.852 127.918L189.512 129.5H189.336V128.938C189.336 127.531 188.75 126.828 187.579 126.828H185.522C184.35 126.828 183.764 127.531 183.764 128.938C183.764 130.355 184.35 131.064 185.522 131.064H188.827C192.342 131.064 194.1 132.822 194.1 136.338V137.727C194.1 141.242 192.342 143 188.827 143H184.784ZM214.392 143C210.877 143 209.119 141.242 209.119 137.727V137.094L212.459 135.512H212.634V137.727C212.634 139.133 213.22 139.836 214.392 139.836H218.435C219.607 139.836 220.193 139.133 220.193 137.727V136.338C220.193 134.932 219.607 134.229 218.435 134.229H215.13C211.615 134.229 209.857 132.465 209.857 128.938C209.857 125.422 211.615 123.664 215.13 123.664H217.187C220.703 123.664 222.461 125.082 222.461 127.918L219.121 129.5H218.945V128.938C218.945 127.531 218.359 126.828 217.187 126.828H215.13C213.959 126.828 213.373 127.531 213.373 128.938C213.373 130.355 213.959 131.064 215.13 131.064H218.435C221.951 131.064 223.709 132.822 223.709 136.338V137.727C223.709 141.242 221.951 143 218.435 143H214.392ZM244.528 143C241.012 143 239.255 141.242 239.255 137.727V128.938C239.255 125.422 241.012 123.664 244.528 123.664H248.571C252.087 123.664 253.845 125.422 253.845 128.938V129.869L242.823 138.395C242.987 139.355 243.555 139.836 244.528 139.836H248.571C249.743 139.836 250.329 139.133 250.329 137.727V136.795L253.669 135.213H253.845V137.727C253.845 141.242 252.087 143 248.571 143H244.528ZM242.77 134.721L250.311 128.639C250.241 127.432 249.661 126.828 248.571 126.828H244.528C243.356 126.828 242.77 127.531 242.77 128.938V134.721ZM269.918 143.703V128.938C269.918 125.422 271.676 123.664 275.191 123.664H279.234C282.75 123.664 284.508 125.422 284.508 128.938V142.121L281.168 143.703H280.992V128.938C280.992 127.531 280.406 126.828 279.234 126.828H275.191C274.02 126.828 273.434 127.531 273.434 128.938V142.121L270.094 143.703H269.918ZM305.855 143C302.339 143 300.581 141.242 300.581 137.727V128.938C300.581 125.422 302.339 123.664 305.855 123.664H309.898C313.413 123.664 315.171 125.422 315.171 128.938V144.934C315.171 148.449 313.413 150.207 309.898 150.207H302.409V150.031L303.816 147.043H309.898C311.07 147.043 311.655 146.34 311.655 144.934V142.473C311.163 142.824 310.577 143 309.898 143H305.855ZM305.855 139.836H309.898C311.07 139.836 311.655 139.133 311.655 137.727V128.938C311.655 127.531 311.07 126.828 309.898 126.828H305.855C304.683 126.828 304.097 127.531 304.097 128.938V137.727C304.097 139.133 304.683 139.836 305.855 139.836ZM337.045 143C333.53 143 331.772 141.242 331.772 137.727V128.938C331.772 125.422 333.53 123.664 337.045 123.664H341.088C344.604 123.664 346.362 125.422 346.362 128.938V129.869L335.34 138.395C335.504 139.355 336.073 139.836 337.045 139.836H341.088C342.26 139.836 342.846 139.133 342.846 137.727V136.795L346.186 135.213H346.362V137.727C346.362 141.242 344.604 143 341.088 143H337.045ZM335.288 134.721L342.829 128.639C342.758 127.432 342.178 126.828 341.088 126.828H337.045C335.873 126.828 335.288 127.531 335.288 128.938V134.721ZM362.435 143.703V128.938C362.435 125.422 364.193 123.664 367.709 123.664H372.103V123.84L370.697 126.828H367.709C366.537 126.828 365.951 127.531 365.951 128.938V142.121L362.611 143.703H362.435Z" fill="black"/>
<path d="M33.376 97V27.88H44.032L72.736 62.056L101.44 27.88H112.096V97H104.32V36.712L72.736 74.248L41.152 36.712V97H33.376ZM143.174 97C141.062 97 139.11 96.488 137.318 95.464C135.59 94.376 134.182 92.968 133.094 91.24C132.07 89.448 131.558 87.496 131.558 85.384V52.936C131.558 50.824 132.07 48.904 133.094 47.176C134.182 45.384 135.59 43.976 137.318 42.952C139.11 41.864 141.062 41.32 143.174 41.32H176.583C178.759 41.32 180.711 41.864 182.439 42.952C184.231 43.976 185.639 45.384 186.662 47.176C187.75 48.904 188.295 50.824 188.295 52.936V85.384C188.295 87.496 187.75 89.448 186.662 91.24C185.639 92.968 184.231 94.376 182.439 95.464C180.711 96.488 178.759 97 176.583 97H143.174ZM143.174 89.128H176.583C177.607 89.128 178.471 88.776 179.175 88.072C179.943 87.304 180.326 86.408 180.326 85.384V52.936C180.326 51.912 179.943 51.048 179.175 50.344C178.471 49.576 177.607 49.192 176.583 49.192H143.174C142.15 49.192 141.254 49.576 140.486 50.344C139.782 51.048 139.43 51.912 139.43 52.936V85.384C139.43 86.408 139.782 87.304 140.486 88.072C141.254 88.776 142.15 89.128 143.174 89.128ZM207.915 97V23.08H215.787V41.32H253.035C255.147 41.32 257.067 41.864 258.795 42.952C260.587 43.976 261.995 45.384 263.019 47.176C264.107 48.904 264.651 50.824 264.651 52.936V85.384C264.651 87.496 264.107 89.448 263.019 91.24C261.995 92.968 260.587 94.376 258.795 95.464C257.067 96.488 255.147 97 253.035 97H207.915ZM219.627 89.128H253.035C254.059 89.128 254.923 88.776 255.627 88.072C256.395 87.304 256.779 86.408 256.779 85.384V52.936C256.779 51.912 256.395 51.048 255.627 50.344C254.923 49.576 254.059 49.192 253.035 49.192H219.627C218.603 49.192 217.707 49.576 216.939 50.344C216.171 51.048 215.787 51.912 215.787 52.936V85.384C215.787 86.408 216.171 87.304 216.939 88.072C217.707 88.776 218.603 89.128 219.627 89.128ZM281.355 97V41.32H289.227V97H281.355ZM281.355 30.952V23.08H289.227V30.952H281.355Z" fill="black"/>
<path fill-rule="evenodd" clip-rule="evenodd" d="M331.179 35.0692L322.049 44.1373L329.67 51.7442L337.292 59.3507L333.546 63.1003C331.485 65.1627 329.63 66.8499 329.422 66.8499C329.215 66.8499 327.095 64.9105 324.712 62.54L320.378 58.2301L315.689 62.9174L311 67.6044L325.739 82.302L340.478 97L355.239 82.3046L370 67.6096L365.21 62.8301L360.42 58.0506L355.908 62.5378L351.397 67.025L347.514 63.1659L343.631 59.3072L351.084 51.86C355.183 47.764 358.537 44.2738 358.537 44.104C358.537 43.7802 340.815 25.9989 340.494 26C340.392 26.0004 336.2 30.0817 331.179 35.0692ZM334.377 38.1319L328.445 44.14L329.961 45.6514L331.476 47.1629L335.987 42.6768L340.497 38.1911L345.007 42.6768L349.517 47.1629L351.02 45.6645L352.522 44.1662L346.415 38.145L340.309 32.1239L334.377 38.1319ZM337.487 47.5523L334.684 50.3661L337.59 53.2643L340.497 56.1628L343.403 53.2643L346.31 50.3661L343.507 47.5523C341.965 46.0045 340.611 44.7381 340.497 44.7381C340.383 44.7381 339.029 46.0045 337.487 47.5523ZM335.423 67.4717C332.736 70.2346 330.223 72.674 329.838 72.8928C329.237 73.2358 328.535 72.6875 324.777 68.9401L320.413 64.5889L318.901 66.0966L317.389 67.6044L328.943 79.1254L340.497 90.6468L352.051 79.1254L363.604 67.6044L362.01 66.0149L360.417 64.4251L355.906 68.9116L351.395 73.398L345.852 67.9233L340.309 62.4489L335.423 67.4717Z" fill="#EA2E2E"/>
</svg>
